<?xml version="1.0" encoding="utf-8"?>
<svg width="48" height="10" viewBox="0 0 48 10" fill="none" xmlns="http://www.w3.org/2000/svg">
  <g>
    <g>
      <g fill="#521D1D" fill-rule="evenodd">
        <path d="M0 5C0 2.23858 2.23858 0 5 0C7.76142 0 10 2.23858 10 5C10 7.76142 7.76142 10 5 10C2.23858 10 0 7.76142 0 5Z" />
        <path d="M5 0C2.23858 0 0 2.23858 0 5C0 7.76142 2.23858 10 5 10C7.76142 10 10 7.76142 10 5C10 2.23858 7.76142 0 5 0ZM2.17157 7.82843Q1 6.65685 1 5Q1 3.34315 2.17157 2.17157Q3.34315 1 5 1Q7 1 8 2Q9 3 9 5Q9 9 5 9Q3.34314 9 2.17157 7.82843Z" fill="#000000" fill-rule="evenodd" />
      </g>
      <g fill="#521D1D" fill-rule="evenodd" transform="translate(19 0)">
        <path d="M0 5C0 2.23858 2.23858 0 5 0C7.76142 0 10 2.23858 10 5C10 7.76142 7.76142 10 5 10C2.23858 10 0 7.76142 0 5Z" />
        <path d="M5 0C2.23858 0 0 2.23858 0 5C0 7.76142 2.23858 10 5 10C7.76142 10 10 7.76142 10 5C10 2.23858 7.76142 0 5 0ZM5 9Q1 9 1 5Q1 3.34315 2.17157 2.17157Q3.34315 1 5 1Q7 1 8 2Q9 3 9 5Q9 9 5 9Z" fill="#000000" fill-rule="evenodd" />
      </g>
      <g fill="#521D1D" fill-rule="evenodd" transform="translate(38 0)">
        <path d="M0 5C0 2.23858 2.23857 0 5 0C7.76143 0 10 2.23858 10 5C10 7.76142 7.76143 10 5 10C2.23857 10 0 7.76142 0 5Z" />
        <path d="M5 0C2.23857 0 0 2.23858 0 5C0 7.76142 2.23857 10 5 10C7.76143 10 10 7.76142 10 5C10 2.23858 7.76143 0 5 0ZM5 9Q1 9 1 5Q1 3.34315 2.17157 2.17157Q3.34315 1 5 1Q7 1 8 2Q9 3 9 5Q9 9 5 9Z" fill="#000000" fill-rule="evenodd" />
      </g>
    </g>
  </g>
</svg>