<?xml version="1.0" encoding="UTF-8" standalone="no"?>
<!DOCTYPE svg PUBLIC "-//W3C//DTD SVG 1.1//EN" "http://www.w3.org/Graphics/SVG/1.1/DTD/svg11.dtd">
<svg width="100%" height="100%" viewBox="0 0 298 299" version="1.1" xmlns="http://www.w3.org/2000/svg" xmlns:xlink="http://www.w3.org/1999/xlink" xml:space="preserve" xmlns:serif="http://www.serif.com/" style="fill-rule:evenodd;clip-rule:evenodd;stroke-linejoin:round;stroke-miterlimit:2;">
    <g transform="matrix(1,0,0,1,-567.597,-15.0976)">
        <g transform="matrix(0.1,0,0,-0.1,0,328)">
            <path d="M7085,3125C7080,3123 7056,3116 7033,3110C7011,3105 6964,3081 6930,3058L6868,3017L6798,3030C6626,3063 6431,2970 6355,2820C6333,2777 6326,2771 6288,2765C6202,2750 6140,2720 6074,2658C5997,2585 5954,2505 5941,2405C5933,2349 5926,2332 5908,2321C5864,2293 5781,2201 5757,2153C5706,2052 5697,1926 5735,1847C5751,1812 5751,1811 5714,1713C5679,1622 5676,1607 5676,1510C5675,1384 5696,1322 5765,1242L5809,1189L5803,1127C5787,956 5882,787 6040,707C6099,676 6103,672 6124,614C6154,532 6182,488 6238,439C6317,370 6422,328 6519,328C6577,328 6578,328 6642,265C6723,186 6788,160 6915,153C6991,149 7015,151 7065,170C7158,203 7167,204 7218,182C7244,171 7292,157 7325,150C7378,140 7396,141 7470,159C7585,188 7631,212 7688,274L7736,327L7821,332C7889,336 7918,342 7972,369C8087,423 8142,489 8207,651C8214,668 8240,687 8283,708C8436,784 8532,958 8514,1127L8508,1190L8553,1240C8603,1295 8632,1362 8650,1459C8666,1551 8643,1655 8589,1731L8568,1762L8589,1833C8643,2016 8581,2192 8421,2311C8390,2334 8386,2343 8379,2403C8358,2574 8214,2730 8051,2758C8010,2765 8003,2771 7956,2839C7849,2992 7711,3055 7536,3030L7455,3018L7402,3054C7333,3100 7235,3130 7156,3129C7123,3129 7091,3127 7085,3125ZM7299,2985C7327,2971 7350,2955 7350,2950C7350,2935 7048,2681 7004,2660C6974,2645 6943,2640 6882,2640C6838,2640 6799,2644 6796,2648C6789,2660 6924,2908 6956,2941C6984,2971 7035,2998 7085,3011C7140,3026 7244,3013 7299,2985ZM6798,2915C6805,2908 6626,2545 6594,2503C6570,2472 6491,2428 6436,2415L6407,2409L6414,2542C6424,2722 6433,2759 6481,2814C6552,2895 6641,2933 6739,2926C6768,2923 6795,2919 6798,2915ZM7712,2904C7765,2887 7843,2822 7865,2779L7880,2751L7828,2736C7799,2728 7710,2702 7630,2679C7458,2629 7389,2625 7320,2660C7229,2705 7229,2704 7328,2782C7447,2876 7483,2900 7527,2916C7571,2933 7643,2928 7712,2904ZM6309,2613C6309,2586 6305,2486 6301,2389C6292,2195 6280,2152 6221,2092C6173,2045 6151,2035 6143,2057C6140,2067 6117,2127 6093,2190C6057,2282 6048,2318 6048,2367C6049,2491 6126,2596 6255,2647C6306,2667 6310,2664 6309,2613ZM8111,2624C8183,2588 8237,2517 8270,2417C8277,2393 8279,2375 8273,2369C8267,2363 8182,2371 8057,2389C7883,2414 7842,2423 7798,2447C7750,2473 7681,2549 7680,2577C7680,2583 7741,2603 7823,2624C7983,2664 8032,2664 8111,2624ZM7307,2550C7355,2532 7379,2529 7450,2533C7497,2535 7542,2540 7551,2544C7562,2549 7579,2532 7614,2481C7640,2443 7677,2399 7697,2384C7741,2350 7835,2311 7871,2310C7907,2310 7916,2295 7923,2227C7933,2125 7977,2052 8079,1970L8122,1935L8101,1866C8090,1829 8080,1781 8080,1761C8080,1706 8108,1610 8135,1568C8149,1547 8160,1528 8160,1525C8160,1521 8140,1494 8116,1464C8053,1387 8030,1320 8030,1211L8030,1123L7951,1077C7839,1012 7806,969 7755,823C7752,815 7732,810 7703,810C7587,809 7482,764 7411,684L7371,638L7308,663C7194,709 7105,707 6991,658L6945,639L6910,678C6834,764 6732,810 6620,810L6561,810L6546,863C6516,966 6446,1045 6340,1094L6287,1119L6286,1222C6285,1343 6269,1387 6196,1468L6150,1521L6175,1558C6234,1647 6251,1778 6217,1877L6199,1928L6278,2007C6362,2090 6400,2161 6400,2236C6400,2280 6415,2310 6438,2310C6474,2310 6576,2352 6621,2385C6647,2403 6685,2446 6706,2479L6745,2540L6846,2534C6965,2526 7024,2541 7109,2600L7162,2638L7206,2605C7230,2587 7275,2562 7307,2550ZM8172,2266C8333,2237 8366,2224 8424,2158C8485,2091 8504,2030 8497,1928C8494,1884 8490,1846 8487,1844C8481,1838 8175,2025 8125,2065C8103,2083 8073,2120 8058,2146C8031,2196 8011,2290 8026,2290C8031,2290 8096,2279 8172,2266ZM6045,2028C6137,1806 6145,1760 6110,1668C6098,1636 6084,1607 6078,1604C6061,1593 5872,1789 5843,1848C5792,1952 5826,2111 5917,2191C5936,2207 5954,2220 5958,2220C5962,2220 6001,2134 6045,2028ZM8349,1795C8516,1680 8544,1637 8544,1505C8544,1430 8524,1371 8478,1317L8454,1288L8388,1387C8351,1441 8298,1517 8271,1557C8212,1640 8190,1694 8190,1759C8190,1825 8208,1883 8226,1876C8234,1873 8289,1837 8349,1795ZM5986,1532C6069,1451 6145,1370 6154,1352C6177,1308 6189,1232 6182,1188L6175,1152L6039,1206C5886,1268 5847,1295 5805,1371C5778,1419 5775,1434 5775,1510C5775,1597 5799,1680 5824,1680C5830,1680 5903,1613 5986,1532ZM8312,1307C8354,1239 8394,1172 8399,1156C8425,1090 8402,974 8350,901C8321,862 8239,800 8215,800C8209,800 8188,890 8166,1008C8126,1226 8125,1270 8157,1335C8176,1373 8219,1430 8228,1430C8232,1430 8270,1375 8312,1307ZM5976,1116C6008,1103 6096,1071 6170,1045C6341,986 6389,953 6430,865C6467,788 6471,790 6283,790C6116,790 6115,790 6064,820C5969,874 5919,955 5912,1068C5910,1107 5909,1140 5912,1140C5914,1140 5943,1129 5976,1116ZM8060,1006C8060,1003 8069,937 8081,859C8105,691 8102,654 8054,582C8013,519 7954,475 7887,455C7833,439 7780,435 7780,448C7781,452 7802,544 7829,652C7883,876 7906,923 7984,977C8026,1006 8060,1019 8060,1006ZM6745,673C6767,661 6800,636 6819,616L6853,581L6715,513C6584,449 6575,446 6506,446C6449,446 6425,452 6385,472C6322,505 6267,561 6241,620L6221,665L6258,672C6319,684 6539,698 6625,696C6683,694 6716,688 6745,673ZM7726,683C7724,673 7707,613 7690,550C7672,487 7649,419 7639,399C7598,318 7493,260 7387,260C7327,260 7250,279 7250,294C7250,301 7457,571 7492,611C7542,668 7607,697 7688,699C7725,700 7731,697 7726,683ZM7238,575C7266,566 7292,555 7295,550C7302,539 7137,341 7095,308C7036,262 6915,247 6836,275C6788,292 6700,351 6700,367C6700,378 7066,573 7106,583C7144,592 7187,590 7238,575Z" style="fill-rule:nonzero;"/>
        </g>
    </g>
</svg>
