<?xml version="1.0" encoding="utf-8"?>
<svg xmlns="http://www.w3.org/2000/svg" style="display: none;">
    <defs>
        <symbol 
            id="nhoma" 
            viewBox="0 0 1488 328"
            preserveAspectRatio="xMidYMid meet"
            aria-hidden="true"
            focusable="false"
        >
          <g transform="translate(0,328) scale(0.1,-0.1)" fill="currentColor" stroke="none">
            <path d="M7085 3125 c-5 -2 -29 -9 -52 -15 -22 -5 -69 -29 -103 -52 l-62 -41
            -70 13 c-172 33 -367 -60 -443 -210 -22 -43 -29 -49 -67 -55 -86 -15 -148 -45
            -214 -107 -77 -73 -120 -153 -133 -253 -8 -56 -15 -73 -33 -84 -44 -28 -127
            -120 -151 -168 -51 -101 -60 -227 -22 -306 16 -35 16 -36 -21 -134 -35 -91
            -38 -106 -38 -203 -1 -126 20 -188 89 -268 l44 -53 -6 -62 c-16 -171 79 -340
            237 -420 59 -31 63 -35 84 -93 30 -82 58 -126 114 -175 79 -69 184 -111 281
            -111 58 0 59 0 123 -63 81 -79 146 -105 273 -112 76 -4 100 -2 150 17 93 33
            102 34 153 12 26 -11 74 -25 107 -32 53 -10 71 -9 145 9 115 29 161 53 218
            115 l48 53 85 5 c68 4 97 10 151 37 115 54 170 120 235 282 7 17 33 36 76 57
            153 76 249 250 231 419 l-6 63 45 50 c50 55 79 122 97 219 16 92 -7 196 -61
            272 l-21 31 21 71 c54 183 -8 359 -168 478 -31 23 -35 32 -42 92 -21 171 -165
            327 -328 355 -41 7 -48 13 -95 81 -107 153 -245 216 -420 191 l-81 -12 -53 36
            c-69 46 -167 76 -246 75 -33 0 -65 -2 -71 -4z m214 -140 c28 -14 51 -30 51
            -35 0 -15 -302 -269 -346 -290 -30 -15 -61 -20 -122 -20 -44 0 -83 4 -86 8 -7
            12 128 260 160 293 28 30 79 57 129 70 55 15 159 2 214 -26z m-501 -70 c7 -7
            -172 -370 -204 -412 -24 -31 -103 -75 -158 -88 l-29 -6 7 133 c10 180 19 217
            67 272 71 81 160 119 258 112 29 -3 56 -7 59 -11z m914 -11 c53 -17 131 -82
            153 -125 l15 -28 -52 -15 c-29 -8 -118 -34 -198 -57 -172 -50 -241 -54 -310
            -19 -91 45 -91 44 8 122 119 94 155 118 199 134 44 17 116 12 185 -12z m-1403
            -291 c0 -27 -4 -127 -8 -224 -9 -194 -21 -237 -80 -297 -48 -47 -70 -57 -78
            -35 -3 10 -26 70 -50 133 -36 92 -45 128 -45 177 1 124 78 229 207 280 51 20
            55 17 54 -34z m1802 11 c72 -36 126 -107 159 -207 7 -24 9 -42 3 -48 -6 -6
            -91 2 -216 20 -174 25 -215 34 -259 58 -48 26 -117 102 -118 130 0 6 61 26
            143 47 160 40 209 40 288 0z m-804 -74 c48 -18 72 -21 143 -17 47 2 92 7 101
            11 11 5 28 -12 63 -63 26 -38 63 -82 83 -97 44 -34 138 -73 174 -74 36 0 45
            -15 52 -83 10 -102 54 -175 156 -257 l43 -35 -21 -69 c-11 -37 -21 -85 -21
            -105 0 -55 28 -151 55 -193 14 -21 25 -40 25 -43 0 -4 -20 -31 -44 -61 -63
            -77 -86 -144 -86 -253 l0 -88 -79 -46 c-112 -65 -145 -108 -196 -254 -3 -8
            -23 -13 -52 -13 -116 -1 -221 -46 -292 -126 l-40 -46 -63 25 c-114 46 -203 44
            -317 -5 l-46 -19 -35 39 c-76 86 -178 132 -290 132 l-59 0 -15 53 c-30 103
            -100 182 -206 231 l-53 25 -1 103 c-1 121 -17 165 -90 246 l-46 53 25 37 c59
            89 76 220 42 319 l-18 51 79 79 c84 83 122 154 122 229 0 44 15 74 38 74 36 0
            138 42 183 75 26 18 64 61 85 94 l39 61 101 -6 c119 -8 178 7 263 66 l53 38
            44 -33 c24 -18 69 -43 101 -55z m865 -284 c161 -29 194 -42 252 -108 61 -67
            80 -128 73 -230 -3 -44 -7 -82 -10 -84 -6 -6 -312 181 -362 221 -22 18 -52 55
            -67 81 -27 50 -47 144 -32 144 5 0 70 -11 146 -24z m-2127 -238 c92 -222 100
            -268 65 -360 -12 -32 -26 -61 -32 -64 -17 -11 -206 185 -235 244 -51 104 -17
            263 74 343 19 16 37 29 41 29 4 0 43 -86 87 -192z m2304 -233 c167 -115 195
            -158 195 -290 0 -75 -20 -134 -66 -188 l-24 -29 -66 99 c-37 54 -90 130 -117
            170 -59 83 -81 137 -81 202 0 66 18 124 36 117 8 -3 63 -39 123 -81z m-2363
            -263 c83 -81 159 -162 168 -180 23 -44 35 -120 28 -164 l-7 -36 -136 54 c-153
            62 -192 89 -234 165 -27 48 -30 63 -30 139 0 87 24 170 49 170 6 0 79 -67 162
            -148z m2326 -225 c42 -68 82 -135 87 -151 26 -66 3 -182 -49 -255 -29 -39
            -111 -101 -135 -101 -6 0 -27 90 -49 208 -40 218 -41 262 -9 327 19 38 62 95
            71 95 4 0 42 -55 84 -123z m-2336 -191 c32 -13 120 -45 194 -71 171 -59 219
            -92 260 -180 37 -77 41 -75 -147 -75 -167 0 -168 0 -219 30 -95 54 -145 135
            -152 248 -2 39 -3 72 0 72 2 0 31 -11 64 -24z m2084 -110 c0 -3 9 -69 21 -147
            24 -168 21 -205 -27 -277 -41 -63 -100 -107 -167 -127 -54 -16 -107 -20 -107
            -7 1 4 22 96 49 204 54 224 77 271 155 325 42 29 76 42 76 29z m-1315 -333
            c22 -12 55 -37 74 -57 l34 -35 -138 -68 c-131 -64 -140 -67 -209 -67 -57 0
            -81 6 -121 26 -63 33 -118 89 -144 148 l-20 45 37 7 c61 12 281 26 367 24 58
            -2 91 -8 120 -23z m981 10 c-2 -10 -19 -70 -36 -133 -18 -63 -41 -131 -51
            -151 -41 -81 -146 -139 -252 -139 -60 0 -137 19 -137 34 0 7 207 277 242 317
            50 57 115 86 196 88 37 1 43 -2 38 -16z m-488 -108 c28 -9 54 -20 57 -25 7
            -11 -158 -209 -200 -242 -59 -46 -180 -61 -259 -33 -48 17 -136 76 -136 92 0
            11 366 206 406 216 38 9 81 7 132 -8z"/>
            <path d="M160 1635 l0 -1305 263 2 262 3 5 809 5 809 699 -812 699 -811 204 0
            203 0 0 1305 0 1305 -265 0 -265 0 -2 -835 -3 -835 -705 833 -706 832 -197 3
            -197 2 0 -1305z"/>
            <path d="M3030 1635 l0 -1305 260 0 260 0 0 515 0 515 600 0 600 0 0 -515 0
            -515 263 2 262 3 0 1300 0 1300 -262 3 -263 2 0 -545 0 -545 -600 0 -600 0 0
            545 0 545 -260 0 -260 0 0 -1305z"/>
            <path d="M8925 2928 c-3 -7 -4 -593 -3 -1303 l3 -1290 264 -3 264 -2 -6 731
            c-3 402 -3 728 0 726 2 -3 157 -245 342 -539 l337 -533 158 0 158 0 336 533
            337 532 3 -725 2 -725 260 0 260 0 0 1305 0 1305 -186 -2 -187 -3 -490 -782
            c-269 -431 -493 -781 -497 -778 -4 2 -227 356 -496 785 l-488 780 -183 0
            c-138 0 -185 -3 -188 -12z"/>
            <path d="M12545 1653 c-307 -708 -560 -1295 -563 -1305 -4 -17 11 -18 275 -18
            l279 0 105 258 106 257 600 3 600 2 103 -252 c57 -139 106 -256 110 -261 3 -4
            130 -6 282 -5 l276 3 -562 1300 -562 1300 -245 3 -245 2 -559 -1287z m1007
            155 c109 -265 196 -483 195 -485 -2 -2 -184 -2 -405 -1 l-401 3 201 488 c110
            268 203 485 206 482 3 -3 94 -222 204 -487z"/>
          </g>
        </symbol>

        <symbol
            id="account_balance_wallet" 
            viewBox="0 -960 960 960"
            height="24px"
        >
            <g fill="currentColor" stroke="none">
                <path 
                    d="M200-200v-560 560Zm0 80q-33 0-56.5-23.5T120-200v-560q0-33 23.5-56.5T200-840h560q33 0 56.5 23.5T840-760v100h-80v-100H200v560h560v-100h80v100q0 33-23.5 56.5T760-120H200Zm320-160q-33 0-56.5-23.5T440-360v-240q0-33 23.5-56.5T520-680h280q33 0 56.5 23.5T880-600v240q0 33-23.5 56.5T800-280H520Zm280-80v-240H520v240h280Zm-160-60q25 0 42.5-17.5T700-480q0-25-17.5-42.5T640-540q-25 0-42.5 17.5T580-480q0 25 17.5 42.5T640-420Z"
                />
            </g>
        </symbol>

        <symbol
            id="calender" 
            viewBox="0 -960 960 960"
            height="24px"
        >
            <g fill="currentColor" stroke="none">
                <path 
                    d="M200-80q-33 0-56.5-23.5T120-160v-560q0-33 23.5-56.5T200-800h40v-80h80v80h320v-80h80v80h40q33 0 56.5 23.5T840-720v560q0 33-23.5 56.5T760-80H200Zm0-80h560v-400H200v400Zm0-480h560v-80H200v80Zm0 0v-80 80Z"
                />
            </g>
        </symbol>

        <symbol
            id="dashboard" 
            viewBox="0 -960 960 960"
            height="24px"
        >
            <g fill="currentColor" stroke="none">
                <path d="M520-600v-240h320v240H520ZM120-440v-400h320v400H120Zm400 320v-400h320v400H520Zm-400 0v-240h320v240H120Zm80-400h160v-240H200v240Zm400 320h160v-240H600v240Zm0-480h160v-80H600v80ZM200-200h160v-80H200v80Zm160-320Zm240-160Zm0 240ZM360-280Z"
                />
            </g>
        </symbol>
    </defs>
</svg>
